<mxfile host="app.diagrams.net" agent="Mozilla/5.0 (Macintosh; Intel Mac OS X 10_15_7) AppleWebKit/537.36 (KHTML, like Gecko) Chrome/133.0.0.0 Safari/537.36" version="26.2.9">
  <diagram name="Page-1" id="qeylZyGSpG8U1TpUNCLx">
    <mxGraphModel dx="2035" dy="1863" grid="1" gridSize="10" guides="1" tooltips="1" connect="1" arrows="1" fold="1" page="1" pageScale="1" pageWidth="850" pageHeight="1100" math="0" shadow="0">
      <root>
        <mxCell id="0" />
        <mxCell id="1" parent="0" />
        <mxCell id="KhbVbLH3nvO56KjMJO7l-1" value="Manager" style="whiteSpace=wrap;html=1;fillColor=#ffcc99;strokeColor=#36393d;" parent="1" vertex="1">
          <mxGeometry x="80" y="280" width="80" height="50" as="geometry" />
        </mxCell>
        <mxCell id="KhbVbLH3nvO56KjMJO7l-2" value="Client" style="whiteSpace=wrap;html=1;fillColor=#ffcc99;strokeColor=#36393d;" parent="1" vertex="1">
          <mxGeometry x="90" y="620" width="80" height="50" as="geometry" />
        </mxCell>
        <mxCell id="KhbVbLH3nvO56KjMJO7l-3" value="Driver" style="whiteSpace=wrap;html=1;fillColor=#ffcc99;strokeColor=#36393d;" parent="1" vertex="1">
          <mxGeometry x="350" y="380" width="80" height="50" as="geometry" />
        </mxCell>
        <mxCell id="KhbVbLH3nvO56KjMJO7l-7" value="" style="endArrow=none;html=1;rounded=0;entryX=1;entryY=0.5;entryDx=0;entryDy=0;" parent="1" source="KhbVbLH3nvO56KjMJO7l-1" target="AeKrgfmqlPfzn_z32QxG-8" edge="1">
          <mxGeometry width="50" height="50" relative="1" as="geometry">
            <mxPoint x="60" y="312" as="sourcePoint" />
            <mxPoint x="29.00531423165694" y="298.86484414355846" as="targetPoint" />
          </mxGeometry>
        </mxCell>
        <mxCell id="KhbVbLH3nvO56KjMJO7l-9" value="&lt;u&gt;ssn&lt;/u&gt;" style="ellipse;whiteSpace=wrap;html=1;fillColor=#cce5ff;strokeColor=#36393d;" parent="1" vertex="1">
          <mxGeometry x="10" y="150" width="80" height="50" as="geometry" />
        </mxCell>
        <mxCell id="KhbVbLH3nvO56KjMJO7l-10" value="" style="endArrow=none;html=1;rounded=0;" parent="1" source="KhbVbLH3nvO56KjMJO7l-1" target="KhbVbLH3nvO56KjMJO7l-9" edge="1">
          <mxGeometry width="50" height="50" relative="1" as="geometry">
            <mxPoint x="150" y="230" as="sourcePoint" />
            <mxPoint x="130" y="240" as="targetPoint" />
          </mxGeometry>
        </mxCell>
        <mxCell id="KhbVbLH3nvO56KjMJO7l-11" value="email" style="ellipse;whiteSpace=wrap;html=1;fillColor=#cce5ff;strokeColor=#36393d;" parent="1" vertex="1">
          <mxGeometry x="-30" y="370" width="80" height="50" as="geometry" />
        </mxCell>
        <mxCell id="KhbVbLH3nvO56KjMJO7l-12" value="" style="endArrow=none;html=1;rounded=0;" parent="1" source="KhbVbLH3nvO56KjMJO7l-11" target="KhbVbLH3nvO56KjMJO7l-1" edge="1">
          <mxGeometry width="50" height="50" relative="1" as="geometry">
            <mxPoint x="100" y="400" as="sourcePoint" />
            <mxPoint x="90" y="420" as="targetPoint" />
          </mxGeometry>
        </mxCell>
        <mxCell id="KhbVbLH3nvO56KjMJO7l-13" value="name" style="ellipse;whiteSpace=wrap;html=1;fillColor=#cce5ff;strokeColor=#36393d;" parent="1" vertex="1">
          <mxGeometry x="-10" y="530" width="80" height="50" as="geometry" />
        </mxCell>
        <mxCell id="KhbVbLH3nvO56KjMJO7l-14" value="&lt;u&gt;email&lt;/u&gt;" style="ellipse;whiteSpace=wrap;html=1;fillColor=#cce5ff;strokeColor=#36393d;" parent="1" vertex="1">
          <mxGeometry x="-60" y="630" width="80" height="50" as="geometry" />
        </mxCell>
        <mxCell id="KhbVbLH3nvO56KjMJO7l-15" value="" style="endArrow=none;html=1;rounded=0;" parent="1" source="KhbVbLH3nvO56KjMJO7l-2" target="KhbVbLH3nvO56KjMJO7l-13" edge="1">
          <mxGeometry width="50" height="50" relative="1" as="geometry">
            <mxPoint x="120" y="570" as="sourcePoint" />
            <mxPoint x="120" y="550" as="targetPoint" />
          </mxGeometry>
        </mxCell>
        <mxCell id="KhbVbLH3nvO56KjMJO7l-16" value="" style="endArrow=none;html=1;rounded=0;" parent="1" source="KhbVbLH3nvO56KjMJO7l-2" target="KhbVbLH3nvO56KjMJO7l-14" edge="1">
          <mxGeometry width="50" height="50" relative="1" as="geometry">
            <mxPoint x="30" y="700" as="sourcePoint" />
            <mxPoint x="50" y="690" as="targetPoint" />
          </mxGeometry>
        </mxCell>
        <mxCell id="KhbVbLH3nvO56KjMJO7l-19" value="" style="endArrow=none;html=1;rounded=0;exitX=1;exitY=0;exitDx=0;exitDy=0;" parent="1" source="AeKrgfmqlPfzn_z32QxG-6" target="KhbVbLH3nvO56KjMJO7l-2" edge="1">
          <mxGeometry width="50" height="50" relative="1" as="geometry">
            <mxPoint x="110" y="700" as="sourcePoint" />
            <mxPoint x="150" y="730" as="targetPoint" />
          </mxGeometry>
        </mxCell>
        <mxCell id="KhbVbLH3nvO56KjMJO7l-21" value="" style="endArrow=none;html=1;rounded=0;entryX=0.5;entryY=0;entryDx=0;entryDy=0;" parent="1" source="KhbVbLH3nvO56KjMJO7l-2" target="AeKrgfmqlPfzn_z32QxG-7" edge="1">
          <mxGeometry width="50" height="50" relative="1" as="geometry">
            <mxPoint x="10" y="710" as="sourcePoint" />
            <mxPoint x="150" y="780" as="targetPoint" />
          </mxGeometry>
        </mxCell>
        <mxCell id="KhbVbLH3nvO56KjMJO7l-23" value="Model" style="whiteSpace=wrap;html=1;fillColor=#ffcc99;strokeColor=#36393d;" parent="1" vertex="1">
          <mxGeometry x="630" y="280" width="80" height="50" as="geometry" />
        </mxCell>
        <mxCell id="KhbVbLH3nvO56KjMJO7l-24" value="Car" style="whiteSpace=wrap;html=1;fillColor=#ffcc99;strokeColor=#36393d;" parent="1" vertex="1">
          <mxGeometry x="620" y="40" width="80" height="50" as="geometry" />
        </mxCell>
        <mxCell id="KhbVbLH3nvO56KjMJO7l-26" value="Address" style="whiteSpace=wrap;html=1;fillColor=#ffcc99;strokeColor=#36393d;" parent="1" vertex="1">
          <mxGeometry x="440" y="860" width="80" height="50" as="geometry" />
        </mxCell>
        <mxCell id="KhbVbLH3nvO56KjMJO7l-30" value="&lt;span style=&quot;font-style: normal;&quot;&gt;client&lt;/span&gt;" style="ellipse;whiteSpace=wrap;html=1;fillColor=#cce5ff;strokeColor=#36393d;fontStyle=2" parent="1" vertex="1">
          <mxGeometry x="610" y="690" width="80" height="50" as="geometry" />
        </mxCell>
        <mxCell id="KhbVbLH3nvO56KjMJO7l-32" value="&lt;span style=&quot;font-style: normal;&quot;&gt;driver&lt;/span&gt;" style="ellipse;whiteSpace=wrap;html=1;fillColor=#cce5ff;strokeColor=#36393d;fontStyle=2" parent="1" vertex="1">
          <mxGeometry x="740" y="680" width="80" height="50" as="geometry" />
        </mxCell>
        <mxCell id="KhbVbLH3nvO56KjMJO7l-33" value="car_model" style="ellipse;whiteSpace=wrap;html=1;fillColor=#cce5ff;strokeColor=#36393d;" parent="1" vertex="1">
          <mxGeometry x="810" y="600" width="80" height="50" as="geometry" />
        </mxCell>
        <mxCell id="KhbVbLH3nvO56KjMJO7l-34" value="date" style="ellipse;whiteSpace=wrap;html=1;fillColor=#cce5ff;strokeColor=#36393d;" parent="1" vertex="1">
          <mxGeometry x="840" y="510" width="80" height="50" as="geometry" />
        </mxCell>
        <mxCell id="KhbVbLH3nvO56KjMJO7l-36" value="" style="endArrow=none;html=1;rounded=0;" parent="1" source="KhbVbLH3nvO56KjMJO7l-30" target="KhbVbLH3nvO56KjMJO7l-73" edge="1">
          <mxGeometry width="50" height="50" relative="1" as="geometry">
            <mxPoint x="660" y="680" as="sourcePoint" />
            <mxPoint x="700" y="590" as="targetPoint" />
          </mxGeometry>
        </mxCell>
        <mxCell id="KhbVbLH3nvO56KjMJO7l-37" value="" style="endArrow=none;html=1;rounded=0;entryX=0.75;entryY=1;entryDx=0;entryDy=0;" parent="1" source="KhbVbLH3nvO56KjMJO7l-32" edge="1" target="KhbVbLH3nvO56KjMJO7l-73">
          <mxGeometry width="50" height="50" relative="1" as="geometry">
            <mxPoint x="660" y="700" as="sourcePoint" />
            <mxPoint x="690" y="580" as="targetPoint" />
          </mxGeometry>
        </mxCell>
        <mxCell id="KhbVbLH3nvO56KjMJO7l-38" value="" style="endArrow=none;html=1;rounded=0;" parent="1" source="KhbVbLH3nvO56KjMJO7l-33" target="KhbVbLH3nvO56KjMJO7l-73" edge="1">
          <mxGeometry width="50" height="50" relative="1" as="geometry">
            <mxPoint x="762" y="702" as="sourcePoint" />
            <mxPoint x="700" y="590" as="targetPoint" />
          </mxGeometry>
        </mxCell>
        <mxCell id="KhbVbLH3nvO56KjMJO7l-39" value="" style="endArrow=none;html=1;rounded=0;" parent="1" source="KhbVbLH3nvO56KjMJO7l-34" target="KhbVbLH3nvO56KjMJO7l-73" edge="1">
          <mxGeometry width="50" height="50" relative="1" as="geometry">
            <mxPoint x="823" y="629" as="sourcePoint" />
            <mxPoint x="700" y="590" as="targetPoint" />
          </mxGeometry>
        </mxCell>
        <mxCell id="KhbVbLH3nvO56KjMJO7l-40" value="address" style="ellipse;whiteSpace=wrap;html=1;fillColor=#cce5ff;strokeColor=#36393d;" parent="1" vertex="1">
          <mxGeometry x="440" y="490" width="80" height="50" as="geometry" />
        </mxCell>
        <mxCell id="KhbVbLH3nvO56KjMJO7l-41" value="&lt;u&gt;name&lt;/u&gt;" style="ellipse;whiteSpace=wrap;html=1;fillColor=#cce5ff;strokeColor=#36393d;" parent="1" vertex="1">
          <mxGeometry x="270" y="490" width="80" height="50" as="geometry" />
        </mxCell>
        <mxCell id="KhbVbLH3nvO56KjMJO7l-44" value="" style="endArrow=none;html=1;rounded=0;" parent="1" source="KhbVbLH3nvO56KjMJO7l-40" target="KhbVbLH3nvO56KjMJO7l-3" edge="1">
          <mxGeometry width="50" height="50" relative="1" as="geometry">
            <mxPoint x="390" y="535" as="sourcePoint" />
            <mxPoint x="440" y="485" as="targetPoint" />
          </mxGeometry>
        </mxCell>
        <mxCell id="KhbVbLH3nvO56KjMJO7l-45" value="" style="endArrow=none;html=1;rounded=0;" parent="1" source="KhbVbLH3nvO56KjMJO7l-41" target="KhbVbLH3nvO56KjMJO7l-3" edge="1">
          <mxGeometry width="50" height="50" relative="1" as="geometry">
            <mxPoint x="350" y="535" as="sourcePoint" />
            <mxPoint x="400" y="485" as="targetPoint" />
          </mxGeometry>
        </mxCell>
        <mxCell id="KhbVbLH3nvO56KjMJO7l-46" value="brand" style="ellipse;whiteSpace=wrap;html=1;fillColor=#cce5ff;strokeColor=#36393d;" parent="1" vertex="1">
          <mxGeometry x="810" y="40" width="80" height="50" as="geometry" />
        </mxCell>
        <mxCell id="KhbVbLH3nvO56KjMJO7l-47" value="" style="endArrow=none;html=1;rounded=0;" parent="1" source="KhbVbLH3nvO56KjMJO7l-24" target="KhbVbLH3nvO56KjMJO7l-46" edge="1">
          <mxGeometry width="50" height="50" relative="1" as="geometry">
            <mxPoint x="480" y="260" as="sourcePoint" />
            <mxPoint x="530" y="210" as="targetPoint" />
          </mxGeometry>
        </mxCell>
        <mxCell id="KhbVbLH3nvO56KjMJO7l-48" value="year" style="ellipse;whiteSpace=wrap;html=1;fillColor=#cce5ff;strokeColor=#36393d;" parent="1" vertex="1">
          <mxGeometry x="810" y="240" width="80" height="50" as="geometry" />
        </mxCell>
        <mxCell id="KhbVbLH3nvO56KjMJO7l-51" value="transmission" style="ellipse;whiteSpace=wrap;html=1;fillColor=#cce5ff;strokeColor=#36393d;" parent="1" vertex="1">
          <mxGeometry x="790" y="320" width="80" height="50" as="geometry" />
        </mxCell>
        <mxCell id="KhbVbLH3nvO56KjMJO7l-52" value="color" style="ellipse;whiteSpace=wrap;html=1;fillColor=#cce5ff;strokeColor=#36393d;" parent="1" vertex="1">
          <mxGeometry x="760" y="170" width="80" height="50" as="geometry" />
        </mxCell>
        <mxCell id="KhbVbLH3nvO56KjMJO7l-53" value="" style="endArrow=none;html=1;rounded=0;" parent="1" source="KhbVbLH3nvO56KjMJO7l-23" target="KhbVbLH3nvO56KjMJO7l-52" edge="1">
          <mxGeometry width="50" height="50" relative="1" as="geometry">
            <mxPoint x="730" y="270" as="sourcePoint" />
            <mxPoint x="740" y="240" as="targetPoint" />
          </mxGeometry>
        </mxCell>
        <mxCell id="KhbVbLH3nvO56KjMJO7l-54" value="" style="endArrow=none;html=1;rounded=0;" parent="1" source="KhbVbLH3nvO56KjMJO7l-23" target="KhbVbLH3nvO56KjMJO7l-48" edge="1">
          <mxGeometry width="50" height="50" relative="1" as="geometry">
            <mxPoint x="790" y="320" as="sourcePoint" />
            <mxPoint x="770" y="220" as="targetPoint" />
          </mxGeometry>
        </mxCell>
        <mxCell id="KhbVbLH3nvO56KjMJO7l-55" value="" style="endArrow=none;html=1;rounded=0;" parent="1" source="KhbVbLH3nvO56KjMJO7l-23" target="KhbVbLH3nvO56KjMJO7l-51" edge="1">
          <mxGeometry width="50" height="50" relative="1" as="geometry">
            <mxPoint x="760" y="400" as="sourcePoint" />
            <mxPoint x="770" y="320" as="targetPoint" />
          </mxGeometry>
        </mxCell>
        <mxCell id="KhbVbLH3nvO56KjMJO7l-56" value="&lt;u&gt;driver&lt;/u&gt;" style="ellipse;whiteSpace=wrap;html=1;fillColor=#cce5ff;strokeColor=#36393d;" parent="1" vertex="1">
          <mxGeometry x="400" y="-80" width="80" height="50" as="geometry" />
        </mxCell>
        <mxCell id="KhbVbLH3nvO56KjMJO7l-57" value="rating" style="ellipse;whiteSpace=wrap;html=1;fillColor=#cce5ff;strokeColor=#36393d;" parent="1" vertex="1">
          <mxGeometry x="290" y="-80" width="80" height="50" as="geometry" />
        </mxCell>
        <mxCell id="KhbVbLH3nvO56KjMJO7l-58" value="message" style="ellipse;whiteSpace=wrap;html=1;fillColor=#cce5ff;strokeColor=#36393d;" parent="1" vertex="1">
          <mxGeometry x="180" y="20" width="80" height="50" as="geometry" />
        </mxCell>
        <mxCell id="KhbVbLH3nvO56KjMJO7l-59" value="" style="endArrow=none;html=1;rounded=0;" parent="1" source="KhbVbLH3nvO56KjMJO7l-74" target="KhbVbLH3nvO56KjMJO7l-58" edge="1">
          <mxGeometry width="50" height="50" relative="1" as="geometry">
            <mxPoint x="310" y="80" as="sourcePoint" />
            <mxPoint x="520" y="180" as="targetPoint" />
          </mxGeometry>
        </mxCell>
        <mxCell id="KhbVbLH3nvO56KjMJO7l-60" value="" style="endArrow=none;html=1;rounded=0;" parent="1" source="KhbVbLH3nvO56KjMJO7l-74" target="KhbVbLH3nvO56KjMJO7l-57" edge="1">
          <mxGeometry width="50" height="50" relative="1" as="geometry">
            <mxPoint x="350" y="40" as="sourcePoint" />
            <mxPoint x="267" y="68" as="targetPoint" />
          </mxGeometry>
        </mxCell>
        <mxCell id="KhbVbLH3nvO56KjMJO7l-61" value="" style="endArrow=none;html=1;rounded=0;" parent="1" source="KhbVbLH3nvO56KjMJO7l-74" target="KhbVbLH3nvO56KjMJO7l-56" edge="1">
          <mxGeometry width="50" height="50" relative="1" as="geometry">
            <mxPoint x="390" y="40" as="sourcePoint" />
            <mxPoint x="340" y="10" as="targetPoint" />
          </mxGeometry>
        </mxCell>
        <mxCell id="KhbVbLH3nvO56KjMJO7l-62" value="CreditCard" style="whiteSpace=wrap;html=1;fillColor=#ffcc99;strokeColor=#36393d;" parent="1" vertex="1">
          <mxGeometry x="230" y="840" width="80" height="50" as="geometry" />
        </mxCell>
        <mxCell id="KhbVbLH3nvO56KjMJO7l-63" value="&lt;u&gt;number&lt;/u&gt;" style="ellipse;whiteSpace=wrap;html=1;fillColor=#cce5ff;strokeColor=#36393d;" parent="1" vertex="1">
          <mxGeometry x="150" y="970" width="80" height="50" as="geometry" />
        </mxCell>
        <mxCell id="KhbVbLH3nvO56KjMJO7l-64" value="&lt;u&gt;number&lt;/u&gt;" style="ellipse;whiteSpace=wrap;html=1;fillColor=#cce5ff;strokeColor=#36393d;" parent="1" vertex="1">
          <mxGeometry x="560" y="970" width="80" height="50" as="geometry" />
        </mxCell>
        <mxCell id="KhbVbLH3nvO56KjMJO7l-65" value="&lt;u&gt;road&lt;/u&gt;" style="ellipse;whiteSpace=wrap;html=1;fillColor=#cce5ff;strokeColor=#36393d;" parent="1" vertex="1">
          <mxGeometry x="560" y="860" width="80" height="50" as="geometry" />
        </mxCell>
        <mxCell id="KhbVbLH3nvO56KjMJO7l-66" value="&lt;u&gt;city&lt;/u&gt;" style="ellipse;whiteSpace=wrap;html=1;fillColor=#cce5ff;strokeColor=#36393d;" parent="1" vertex="1">
          <mxGeometry x="460" y="980" width="80" height="50" as="geometry" />
        </mxCell>
        <mxCell id="KhbVbLH3nvO56KjMJO7l-67" value="" style="endArrow=none;html=1;rounded=0;" parent="1" source="KhbVbLH3nvO56KjMJO7l-26" target="KhbVbLH3nvO56KjMJO7l-65" edge="1">
          <mxGeometry width="50" height="50" relative="1" as="geometry">
            <mxPoint x="470" y="880" as="sourcePoint" />
            <mxPoint x="520" y="830" as="targetPoint" />
          </mxGeometry>
        </mxCell>
        <mxCell id="KhbVbLH3nvO56KjMJO7l-68" value="" style="endArrow=none;html=1;rounded=0;" parent="1" source="KhbVbLH3nvO56KjMJO7l-26" target="KhbVbLH3nvO56KjMJO7l-64" edge="1">
          <mxGeometry width="50" height="50" relative="1" as="geometry">
            <mxPoint x="530" y="920" as="sourcePoint" />
            <mxPoint x="570" y="910" as="targetPoint" />
          </mxGeometry>
        </mxCell>
        <mxCell id="KhbVbLH3nvO56KjMJO7l-69" value="" style="endArrow=none;html=1;rounded=0;" parent="1" source="KhbVbLH3nvO56KjMJO7l-26" target="KhbVbLH3nvO56KjMJO7l-66" edge="1">
          <mxGeometry width="50" height="50" relative="1" as="geometry">
            <mxPoint x="530" y="960" as="sourcePoint" />
            <mxPoint x="582" y="992" as="targetPoint" />
          </mxGeometry>
        </mxCell>
        <mxCell id="KhbVbLH3nvO56KjMJO7l-70" value="" style="endArrow=none;html=1;rounded=0;" parent="1" source="KhbVbLH3nvO56KjMJO7l-63" target="KhbVbLH3nvO56KjMJO7l-62" edge="1">
          <mxGeometry width="50" height="50" relative="1" as="geometry">
            <mxPoint x="540" y="970" as="sourcePoint" />
            <mxPoint x="592" y="1002" as="targetPoint" />
          </mxGeometry>
        </mxCell>
        <mxCell id="KhbVbLH3nvO56KjMJO7l-71" value="" style="endArrow=none;html=1;rounded=0;" parent="1" source="KhbVbLH3nvO56KjMJO7l-72" target="KhbVbLH3nvO56KjMJO7l-62" edge="1">
          <mxGeometry width="50" height="50" relative="1" as="geometry">
            <mxPoint x="310" y="1041" as="sourcePoint" />
            <mxPoint x="362" y="979" as="targetPoint" />
          </mxGeometry>
        </mxCell>
        <mxCell id="KhbVbLH3nvO56KjMJO7l-72" value="address" style="ellipse;whiteSpace=wrap;html=1;fillColor=#cce5ff;strokeColor=#36393d;" parent="1" vertex="1">
          <mxGeometry x="280" y="980" width="80" height="50" as="geometry" />
        </mxCell>
        <mxCell id="KhbVbLH3nvO56KjMJO7l-73" value="Rent" style="shape=ext;margin=3;double=1;whiteSpace=wrap;html=1;align=center;fillColor=#ffcc99;strokeColor=#36393d;" parent="1" vertex="1">
          <mxGeometry x="630" y="510" width="80" height="50" as="geometry" />
        </mxCell>
        <mxCell id="KhbVbLH3nvO56KjMJO7l-74" value="Review" style="shape=ext;margin=3;double=1;whiteSpace=wrap;html=1;align=center;fillColor=#ffcc99;strokeColor=#36393d;" parent="1" vertex="1">
          <mxGeometry x="340" y="20" width="80" height="50" as="geometry" />
        </mxCell>
        <mxCell id="AeKrgfmqlPfzn_z32QxG-6" value="address" style="ellipse;shape=doubleEllipse;margin=3;whiteSpace=wrap;html=1;align=center;comic=0;strokeColor=default;verticalAlign=middle;fontFamily=Helvetica;fontSize=12;fontColor=default;fillColor=#cce5ff;" vertex="1" parent="1">
          <mxGeometry x="-10" y="740" width="80" height="50" as="geometry" />
        </mxCell>
        <mxCell id="AeKrgfmqlPfzn_z32QxG-7" value="credit_card" style="ellipse;shape=doubleEllipse;margin=3;whiteSpace=wrap;html=1;align=center;comic=0;strokeColor=default;verticalAlign=middle;fontFamily=Helvetica;fontSize=12;fontColor=default;fillColor=#cce5ff;" vertex="1" parent="1">
          <mxGeometry x="80" y="800" width="80" height="50" as="geometry" />
        </mxCell>
        <mxCell id="AeKrgfmqlPfzn_z32QxG-8" value="name" style="ellipse;whiteSpace=wrap;html=1;fillColor=#cce5ff;strokeColor=#36393d;" vertex="1" parent="1">
          <mxGeometry x="-50" y="260" width="80" height="50" as="geometry" />
        </mxCell>
        <mxCell id="AeKrgfmqlPfzn_z32QxG-13" value="&lt;u&gt;car_id&lt;/u&gt;" style="ellipse;whiteSpace=wrap;html=1;fillColor=#cce5ff;strokeColor=#36393d;" vertex="1" parent="1">
          <mxGeometry x="770" y="-20" width="80" height="50" as="geometry" />
        </mxCell>
        <mxCell id="AeKrgfmqlPfzn_z32QxG-14" value="" style="endArrow=none;html=1;rounded=0;exitX=1;exitY=0;exitDx=0;exitDy=0;" edge="1" parent="1" source="KhbVbLH3nvO56KjMJO7l-24" target="AeKrgfmqlPfzn_z32QxG-13">
          <mxGeometry width="50" height="50" relative="1" as="geometry">
            <mxPoint x="710" y="75" as="sourcePoint" />
            <mxPoint x="820" y="75" as="targetPoint" />
          </mxGeometry>
        </mxCell>
        <mxCell id="AeKrgfmqlPfzn_z32QxG-15" value="&lt;u&gt;car_id&lt;/u&gt;" style="ellipse;whiteSpace=wrap;html=1;fillColor=#cce5ff;strokeColor=#36393d;" vertex="1" parent="1">
          <mxGeometry x="710" y="360" width="80" height="50" as="geometry" />
        </mxCell>
        <mxCell id="AeKrgfmqlPfzn_z32QxG-16" value="" style="endArrow=none;html=1;rounded=0;exitX=0.75;exitY=1;exitDx=0;exitDy=0;entryX=0;entryY=0;entryDx=0;entryDy=0;" edge="1" parent="1" source="KhbVbLH3nvO56KjMJO7l-23" target="AeKrgfmqlPfzn_z32QxG-15">
          <mxGeometry width="50" height="50" relative="1" as="geometry">
            <mxPoint x="720" y="325" as="sourcePoint" />
            <mxPoint x="803" y="346" as="targetPoint" />
          </mxGeometry>
        </mxCell>
        <mxCell id="AeKrgfmqlPfzn_z32QxG-17" value="&lt;u&gt;rent_id&lt;/u&gt;" style="ellipse;whiteSpace=wrap;html=1;fillColor=#cce5ff;strokeColor=#36393d;" vertex="1" parent="1">
          <mxGeometry x="800" y="450" width="80" height="50" as="geometry" />
        </mxCell>
        <mxCell id="AeKrgfmqlPfzn_z32QxG-19" value="" style="endArrow=none;html=1;rounded=0;entryX=1;entryY=0;entryDx=0;entryDy=0;exitX=0.025;exitY=0.79;exitDx=0;exitDy=0;exitPerimeter=0;" edge="1" parent="1" source="AeKrgfmqlPfzn_z32QxG-17" target="KhbVbLH3nvO56KjMJO7l-73">
          <mxGeometry width="50" height="50" relative="1" as="geometry">
            <mxPoint x="850" y="500" as="sourcePoint" />
            <mxPoint x="720" y="500" as="targetPoint" />
          </mxGeometry>
        </mxCell>
      </root>
    </mxGraphModel>
  </diagram>
</mxfile>
